<svg version="1.1" id="Layer_1" xmlns="http://www.w3.org/2000/svg" xmlns:xlink="http://www.w3.org/1999/xlink" x="0px" y="0px"
	 width="100%" viewBox="0 0 1024 1024" enable-background="new 0 0 1024 1024" xml:space="preserve">
<path fill="#3A7BD5" opacity="1.3A7BD5" stroke="none" 
	d="
M1.3A7BD5,308.468658 
	C19.140192,319.658356 33.592266,335.248688 47.568951,351.397034 
	C68.201385,375.235321 81.273125,403.042969 90.825912,432.745209 
	C91.026970,433.370361 91.153961,434.030090 91.219337,434.683289 
	C91.249191,434.981598 91.044792,435.303314 90.789886,436.111206 
	C84.522285,436.111206 78.035408,436.648834 71.664589,436.016754 
	C46.023441,433.472748 23.047403,424.160583 2.947917,407.929352 
	C2.566870,407.621643 2.086451,407.436981 1.326196,407.097473 
	C1.3A7BD5,374.312439 1.3A7BD5,341.624878 1.3A7BD5,308.468658 
z"/>
<path fill="#3A7BD5" opacity="1.3A7BD5" stroke="none" 
	d="
M1.3A7BD5,267.468658 
	C20.925478,272.070038 40.830730,277.191101 58.119678,288.906158 
	C57.475185,290.610260 56.546242,290.569244 55.806622,290.258118 
	C47.595249,286.804565 44.684139,290.511322 38.434273,297.158295 
	C36.467125,299.250427 37.278378,301.828186 37.820793,304.296265 
	C39.452213,311.719330 40.571560,319.188232 39.862938,327.598358 
	C26.156549,320.525543 15.316066,310.033661 1.343704,304.102722 
	C1.3A7BD5,291.979095 1.3A7BD5,279.958221 1.3A7BD5,267.468658 
z"/>
<path fill="#3A7BD5" opacity="1.3A7BD5" stroke="none" 
	d="
M380.979309,413.913818 
	C391.909729,409.710022 402.512268,405.730957 413.513855,402.951752 
	C416.624329,402.165985 419.451233,401.566345 419.509399,406.562164 
	C419.540527,409.234406 430.544434,418.525269 433.108124,418.817993 
	C439.206665,419.514343 446.800598,415.461334 449.632874,409.740417 
	C451.007965,406.962860 452.856995,404.774323 455.334015,402.947357 
	C456.739349,401.910858 458.766754,400.809448 458.162109,398.658020 
	C457.595734,396.642792 455.482361,396.411957 453.658234,396.078400 
	C452.899261,395.939575 451.965363,396.114441 451.253693,394.168121 
	C470.391083,390.153046 489.220306,385.531067 508.464233,385.829437 
	C508.879883,398.537781 515.741028,405.773773 524.725769,411.906494 
	C539.712952,422.136322 557.137512,422.694458 574.174988,424.951660 
	C580.437134,425.781281 586.865723,424.872620 593.012573,426.717377 
	C613.739563,432.937775 635.194702,433.724518 656.524841,434.354156 
	C674.486816,434.884399 692.429749,433.059021 709.717407,427.364716 
	C711.113159,426.904938 712.434875,426.053101 714.016296,426.457672 
	C715.175171,427.529907 714.424561,428.675537 714.053955,429.686951 
	C710.276001,439.998291 706.113464,450.164673 702.108215,460.377838 
	C697.287964,472.669342 688.383362,478.474976 676.435242,481.451233 
	C665.779541,484.105499 654.995667,486.094788 644.230835,488.201263 
	C642.677185,488.505310 640.843567,488.295135 639.271606,491.376373 
	C656.423828,489.716614 672.440979,486.737457 688.303284,481.903687 
	C668.153748,513.432373 642.361206,538.709045 608.376221,554.542175 
	C559.141479,577.479919 508.204376,581.477722 455.859924,566.765747 
	C455.730713,563.400024 458.144379,563.393127 459.875275,562.751343 
	C476.098053,556.736694 491.411377,549.331238 503.368927,536.232056 
	C514.798462,523.711182 522.606506,509.133911 528.498535,493.420898 
	C534.050232,478.615509 538.908813,463.539093 545.705872,449.225372 
	C547.155090,446.173584 546.332397,444.573822 543.298950,443.597900 
	C520.205261,436.167938 496.834900,430.999573 472.270935,432.071320 
	C441.446289,433.416199 414.808319,444.119202 392.955780,465.948395 
	C381.977356,476.915131 375.776428,490.756134 371.357025,505.434479 
	C370.170624,509.375000 370.255737,509.400635 368.215790,511.986725 
	C366.439209,512.162476 365.469055,510.866455 364.619659,509.704803 
	C354.484009,495.843384 344.731598,481.791748 339.261078,465.224152 
	C336.648071,457.310608 337.097839,449.101776 336.180573,441.043610 
	C335.699463,436.817230 339.674377,434.507019 342.987457,432.505676 
	C354.989441,425.255585 367.488007,419.005035 380.979309,413.913818 
z"/>
<path fill="#3A7BD5" opacity="1.3A7BD5" stroke="none" 
	d="
M641.495483,171.453644 
	C694.643188,208.205292 727.800232,258.084473 741.871765,320.589325 
	C747.434814,345.299835 747.342896,370.345459 744.671753,395.528595 
	C741.844604,422.183105 734.599121,447.422455 722.425415,471.191528 
	C713.055542,489.486237 701.463989,506.376099 687.940247,521.895264 
	C652.755920,562.270691 608.380920,585.677673 555.572266,593.396729 
	C541.273071,595.486877 526.862671,597.626099 512.439392,597.153687 
	C466.930573,595.663330 424.666931,583.574158 386.585693,557.761230 
	C346.122589,530.333801 320.105682,492.194305 302.711884,447.360107 
	C298.486023,436.467468 295.025269,425.388702 293.061279,413.837158 
	C292.502838,410.552490 293.363098,409.357178 296.612213,408.916473 
	C307.551056,407.432770 307.090210,407.458313 309.676239,417.536469 
	C321.564606,463.867218 343.299561,504.533051 380.702820,535.325195 
	C410.130127,559.551086 444.366608,573.585815 481.915070,579.849915 
	C497.611908,582.468567 513.506470,582.790283 529.196228,582.278564 
	C560.520203,581.256836 590.060181,572.362854 618.108215,558.302917 
	C653.036743,540.793823 678.889221,513.828186 699.253784,481.135803 
	C715.757751,454.641083 726.510803,425.811127 730.298828,394.881073 
	C734.035095,364.373047 731.536987,334.117920 722.320190,304.556946 
	C713.582581,276.532501 700.028015,251.012512 681.727417,228.232254 
	C667.048279,209.960068 649.784241,194.191330 629.469238,182.190979 
	C607.546021,169.240646 584.307556,159.349854 559.306946,154.057281 
	C523.021179,146.375687 487.395050,148.530762 451.925842,159.827927 
	C422.532288,169.189957 396.166931,183.495255 372.848511,203.417526 
	C349.581390,223.295975 332.106445,247.700577 319.002899,275.256409 
	C315.740875,282.116211 313.064850,289.254639 309.890656,296.809601 
	C306.116852,293.879395 302.671997,291.385559 299.449402,288.631592 
	C297.641632,287.086731 299.018677,285.213348 299.666260,283.573181 
	C312.321655,251.518982 330.485107,223.217896 355.622253,199.354691 
	C390.152405,166.574432 431.018616,146.984497 477.635590,138.505249 
	C498.937439,134.630615 520.193481,134.303329 541.664673,136.530884 
	C577.622131,140.261292 610.629272,152.193024 641.495483,171.453644 
z"/>
<path fill="#3A7BD5" opacity="1.3A7BD5" stroke="none" 
	d="
M295.828064,401.799133 
	C265.514923,400.884277 241.391769,388.611206 223.624954,364.577515 
	C212.461670,349.476562 207.876495,331.727112 204.756271,313.522797 
	C202.733780,301.722900 200.668259,289.926239 198.315857,278.189484 
	C197.606354,274.649567 198.553192,273.571686 201.925964,273.827637 
	C225.775345,275.637573 249.926178,275.887482 272.625183,284.692902 
	C304.261871,296.965393 325.366821,318.509033 329.965118,353.337219 
	C331.842316,367.555634 328.338837,381.140137 322.490906,394.126160 
	C321.131531,397.144775 320.313782,400.237030 323.013123,402.943634 
	C325.139496,405.075745 327.103271,405.628754 328.755585,402.132660 
	C342.160492,373.769775 341.818726,345.745850 326.943176,318.001862 
	C324.324280,313.117371 320.318146,309.218903 317.475128,304.527344 
	C313.727966,298.343750 320.246277,294.329224 321.185272,289.077606 
	C321.682495,286.296478 324.230621,285.518127 327.067932,285.643585 
	C331.026794,285.818604 334.999237,285.687683 339.481781,285.687683 
	C334.357483,310.374512 332.716522,334.281219 357.133453,352.325714 
	C346.525848,357.698944 343.845612,367.352783 340.816132,376.927216 
	C348.071625,370.266693 351.568542,359.738922 362.560333,356.804626 
	C364.450439,360.511383 361.798920,363.000397 360.086884,365.229431 
	C355.814117,370.792542 352.042206,376.651947 348.333099,382.586121 
	C337.782471,399.465790 330.629822,417.514160 328.755463,437.488953 
	C328.577667,439.383545 328.815033,441.509949 327.272186,443.433594 
	C324.723022,442.525726 324.304291,440.228210 323.635864,438.074158 
	C321.357300,430.731323 321.489197,422.925873 319.591553,415.568451 
	C308.542694,372.730682 289.061798,335.363312 250.348450,310.759918 
	C247.591782,309.007935 244.852966,307.188843 241.061966,307.123138 
	C269.908173,333.117371 294.338440,361.962952 304.714478,400.951416 
	C301.480408,401.267639 298.870880,401.522766 295.828064,401.799133 
z"/>
<path fill="#3A7BD5" opacity="1.3A7BD5" stroke="none" 
	d="
M418.170990,521.172485 
	C437.821533,501.304932 462.323883,489.234283 485.665192,475.444855 
	C487.165192,474.558746 489.191711,474.401825 490.285522,471.883087 
	C481.755432,472.912659 474.194183,475.665741 466.747009,478.832520 
	C438.461365,490.860413 414.247833,508.270752 395.564270,532.912598 
	C393.587799,535.519409 391.909546,535.250671 389.820312,533.388672 
	C386.463135,530.396484 383.103577,527.406860 379.731506,524.431519 
	C377.044281,522.060425 377.573669,519.067993 378.077087,516.076355 
	C384.195953,479.712311 406.059113,457.744110 440.580170,446.844055 
	C458.542358,441.172516 476.658112,438.981079 495.263245,441.834686 
	C501.825134,442.841156 508.262482,444.657166 514.758850,446.094116 
	C517.808777,446.768738 519.404236,448.524475 519.057068,451.766876 
	C518.399841,457.905090 521.036926,463.123413 524.005432,468.104614 
	C525.364807,470.385559 526.409241,472.335510 525.518555,475.032837 
	C518.257080,497.023621 509.454559,518.288696 492.588287,534.837341 
	C479.759827,547.424133 464.169281,554.245667 445.992706,556.472229 
	C430.131348,558.415161 418.038147,551.229858 405.539001,543.923218 
	C402.914093,542.388794 402.708740,540.515991 404.516693,538.175110 
	C408.889313,532.513733 412.550171,526.284912 418.170990,521.172485 
z"/>
<path fill="#3A7BD5" opacity="1.3A7BD5" stroke="none" 
	d="
M607.833679,302.265808 
	C583.001953,295.742432 563.141235,281.123810 543.361389,266.342163 
	C536.561279,261.260376 529.596436,256.397705 522.838074,251.262177 
	C520.403015,249.411774 518.603577,249.340012 516.381409,251.549881 
	C504.930786,262.937195 493.328552,274.172394 481.903534,285.585144 
	C474.229523,293.250977 465.945587,300.186127 457.392761,306.819641 
	C454.212250,309.286438 451.308380,312.034393 448.893188,315.231323 
	C446.244354,318.737579 446.916626,320.233337 451.101929,320.720398 
	C457.518036,321.467041 457.908539,321.875031 458.001709,328.443176 
	C458.134003,337.768158 458.399231,347.092834 457.366730,356.398895 
	C457.082611,358.959534 456.651611,361.088440 453.485687,361.086578 
	C450.177307,361.084595 449.840851,358.682129 449.814606,356.254242 
	C449.722656,347.758667 449.439362,339.250702 449.787048,330.770325 
	C449.992645,325.754913 447.862366,323.753815 443.281769,323.549377 
	C439.456177,323.378601 435.621765,323.370972 431.801300,323.130920 
	C429.020874,322.956177 426.127930,322.869659 423.880402,320.157227 
	C426.078674,315.834045 430.446564,313.718750 433.850677,310.771637 
	C449.650330,297.093231 462.731384,280.809113 477.341400,266.001099 
	C488.916504,254.269180 499.727478,241.781204 512.198853,230.923859 
	C514.837891,228.626434 516.969299,228.173676 520.204712,229.582794 
	C542.795288,239.421463 565.442749,249.130753 588.119812,258.768860 
	C594.996582,261.691589 601.555603,265.140869 607.594055,269.988831 
	C610.621643,266.217407 609.619324,262.429626 609.637390,258.921265 
	C609.692627,248.228409 612.328491,245.257736 623.033447,244.300797 
	C629.079224,243.760345 638.157532,252.219650 638.141541,258.292084 
	C638.111694,269.620209 638.084351,280.949219 638.212524,292.276062 
	C638.234741,294.237579 637.241821,297.209320 640.143921,297.808411 
	C643.607910,298.523438 641.804199,294.423218 643.688965,293.214813 
	C646.252380,293.303650 647.998596,295.234711 649.880188,296.761841 
	C660.870056,305.681488 671.817749,314.653473 682.738647,323.657410 
	C684.142273,324.814636 686.952454,325.677277 685.512329,328.111115 
	C684.259888,330.227661 681.859741,328.959564 680.015198,328.413055 
	C665.154968,324.010529 650.788757,318.249084 636.371765,312.608063 
	C627.074524,308.970276 617.604980,305.772949 607.833679,302.265808 
z"/>
<path fill="#3A7BD5" opacity="1.3A7BD5" stroke="none" 
	d="
M476.456116,643.552551 
	C488.420624,655.910339 497.523010,670.121826 508.613251,683.688965 
	C508.613251,665.617126 508.667480,648.218445 508.574493,630.820618 
	C508.551727,626.561646 504.154205,625.449158 501.805054,622.392029 
	C513.798218,621.500549 525.612610,623.940369 537.269287,621.501282 
	C537.425354,622.491882 537.612915,623.022522 537.505066,623.091553 
	C530.992310,627.260010 531.232361,633.786865 531.253174,640.362915 
	C531.328735,664.184448 531.274353,688.006287 531.303589,711.828003 
	C531.309875,716.932129 530.312988,722.368835 535.737488,725.405334 
	C534.668823,727.707275 533.164490,727.089355 531.962524,727.051208 
	C530.138489,726.993469 528.134460,726.085022 526.534119,726.585083 
	C518.050964,729.235779 513.775330,724.160889 508.723755,718.547546 
	C492.771240,700.820923 479.360565,681.063293 463.085236,662.721313 
	C463.085236,665.648010 463.071533,668.167542 463.087524,670.686951 
	C463.171082,683.846558 463.239899,697.006287 463.360870,710.165588 
	C463.413940,715.940186 463.230408,721.821838 468.635834,726.469910 
	C456.781830,726.965759 445.265228,726.643555 433.748138,727.267334 
	C433.748138,726.084167 433.635162,725.541809 433.764282,725.476196 
	C440.915039,721.844238 439.825836,715.184875 439.827484,708.961426 
	C439.833252,686.972778 439.891571,664.983459 439.742676,642.995728 
	C439.691681,635.467590 442.074432,626.942810 432.325806,622.906250 
	C434.217010,620.741455 436.021881,621.434143 437.465179,621.807495 
	C442.567291,623.127197 447.756134,623.029968 452.857849,622.541138 
	C456.303162,622.211121 458.511108,623.292358 460.626953,625.733032 
	C465.753815,631.647034 471.014801,637.444763 476.456116,643.552551 
z"/>
<path fill="#3A7BD5" opacity="1.3A7BD5" stroke="none" 
	d="
M675.796265,727.074707 
	C674.840210,724.454529 676.889587,723.739563 678.316101,722.812561 
	C681.457214,720.771423 682.564819,717.875366 682.509399,714.295166 
	C682.190125,693.643738 681.926086,672.991455 681.576416,652.340576 
	C681.460938,645.516174 680.929688,638.692993 680.995544,631.873169 
	C681.043579,626.902649 676.700867,625.142517 674.505188,622.169739 
	C674.630676,620.873291 675.472351,620.718811 676.005249,620.855103 
	C683.995789,622.899414 692.575989,621.970215 700.235352,625.882019 
	C702.285278,626.928833 703.752930,628.285400 705.122742,629.947266 
	C719.104187,646.910278 733.799622,663.294006 746.675903,681.154297 
	C747.036255,681.654114 747.500000,682.079346 748.660400,683.363953 
	C748.660400,673.484985 748.667725,664.569519 748.657959,655.653992 
	C748.650818,649.156433 748.489807,642.655762 748.644165,636.162354 
	C748.762634,631.177979 747.966614,626.862610 742.952698,624.410706 
	C741.965576,623.927979 740.920776,623.156860 741.403137,621.228760 
	C753.278137,622.603027 765.252625,622.141113 777.050842,621.456116 
	C777.643677,622.828186 777.160461,623.685303 776.498901,624.054626 
	C771.023315,627.110596 771.093994,632.220459 771.126221,637.520325 
	C771.260864,659.678284 771.124695,681.838684 771.382263,703.994751 
	C771.473267,711.818787 769.232788,720.388611 777.581055,726.599182 
	C774.352295,727.734863 771.933411,727.219238 769.518433,726.958984 
	C767.706848,726.763672 765.686584,726.059021 764.105835,726.597839 
	C757.812012,728.743408 754.368103,725.537109 750.780945,720.959717 
	C736.810181,703.132874 722.539429,685.541260 708.412537,667.836365 
	C706.974365,666.033875 705.752258,664.058960 704.379944,662.092529 
	C702.701111,663.026978 703.539490,664.537354 703.493225,665.665344 
	C702.810486,682.328674 704.200684,698.959045 704.388794,715.610840 
	C704.426453,718.943176 705.544250,721.795349 708.684387,723.543457 
	C709.791321,724.159668 711.087158,724.739746 711.232971,727.218750 
	C699.387634,725.924072 687.732727,726.166626 675.796265,727.074707 
z"/>
<path fill="#3A7BD5" opacity="1.3A7BD5" stroke="none" 
	d="
M352.745148,632.250854 
	C360.890808,641.336121 362.922363,651.742371 361.316071,663.162048 
	C359.647919,675.021790 352.611694,682.969788 341.691101,689.068970 
	C351.443329,701.569153 357.055969,716.554993 370.301971,726.427795 
	C358.727936,726.955994 347.125885,725.509033 334.321625,726.936584 
	C338.340820,721.207397 334.153687,718.172241 331.887543,714.561096 
	C327.817963,708.076172 323.628479,701.664490 319.673676,695.110840 
	C318.501038,693.167664 317.237488,692.127991 314.932526,692.299805 
	C313.110718,692.435669 311.244507,692.528687 309.444061,692.291382 
	C304.673309,691.662659 302.849945,693.481018 303.213318,698.373901 
	C303.594604,703.508362 303.365540,708.693604 303.286896,713.854919 
	C303.227417,717.758972 303.072723,721.580200 307.381409,723.691345 
	C308.307770,724.145264 308.557739,725.257202 307.828766,727.003235 
	C296.650787,726.288696 285.191711,725.709900 274.009186,727.392151 
	C273.255646,725.665222 273.702179,724.574707 274.592773,724.198914 
	C279.750824,722.022766 279.846710,717.784790 279.831848,713.054932 
	C279.753876,688.242493 279.923248,663.429443 279.926331,638.616577 
	C279.927063,632.536255 281.303650,625.824707 273.684784,623.240723 
	C274.133392,621.409607 274.926025,621.351746 275.797394,621.476501 
	C291.710449,623.754822 307.737549,621.929016 323.669708,622.811646 
	C333.901459,623.378479 344.338379,624.402527 352.745148,632.250854 
M316.480621,672.681580 
	C319.469421,672.669067 322.473907,672.848633 325.444000,672.606506 
	C333.005066,671.990112 339.454651,665.119080 339.231750,658.133789 
	C338.989105,650.530273 331.445557,643.151855 323.927979,643.199463 
	C318.780762,643.232056 313.619080,643.576355 308.491241,643.290405 
	C304.148102,643.048218 302.977325,644.892944 303.238159,648.846558 
	C303.489105,652.650085 303.321167,656.481934 303.319824,660.301331 
	C303.315491,672.591736 303.312378,672.591736 316.480621,672.681580 
z"/>
<path fill="#3A7BD5" opacity="1.3A7BD5" stroke="none" 
	d="
M526.428528,325.362366 
	C535.157227,324.807251 535.256409,324.910278 535.316467,333.231537 
	C535.341736,336.729950 535.301147,340.235199 535.511292,343.724060 
	C535.715088,347.107178 534.153870,348.270264 531.010437,347.892334 
	C528.441711,347.583527 525.814819,346.768097 522.926941,348.781219 
	C525.808533,350.516052 528.457153,349.642609 530.988647,349.547363 
	C532.464172,349.491821 533.843628,349.118317 535.380920,349.724609 
	C540.281616,351.657471 541.177734,351.102386 541.683350,345.610809 
	C542.246033,339.498505 542.560669,333.363312 542.979187,327.298065 
	C544.982605,325.899750 546.997131,326.836243 548.924438,326.813507 
	C552.009888,326.777069 553.304443,328.191406 552.084534,331.226959 
	C550.410034,335.393494 552.589294,337.359406 556.240295,337.837585 
	C559.736816,338.295563 561.019531,340.423584 561.789185,343.339874 
	C562.214294,344.950745 562.629395,346.564270 563.052551,348.175659 
	C565.736755,358.396729 565.419739,358.927734 555.091003,357.937286 
	C546.426086,357.106384 537.808533,357.767395 529.158875,357.863953 
	C513.182434,358.042328 497.198090,357.378845 481.216309,357.335052 
	C478.383545,357.327301 473.411011,355.309021 473.516663,360.709015 
	C473.620300,366.003326 478.521912,363.464355 481.345123,363.852020 
	C485.825897,364.467255 490.520325,363.255371 495.696198,365.142792 
	C491.646820,368.691132 492.474121,371.803284 495.495636,374.576813 
	C494.261230,376.714752 492.318329,376.812927 490.579498,377.108459 
	C483.209717,378.360962 475.798706,379.384338 468.453064,380.759979 
	C464.762329,381.451141 463.694397,380.126678 463.745667,376.616760 
	C463.920959,364.624420 464.052826,352.627960 463.927612,340.635925 
	C463.847809,332.988892 463.275940,325.347229 462.942535,317.702423 
	C462.818573,314.860016 463.740021,312.519836 466.123474,310.766968 
	C485.005066,296.880676 500.268951,279.093506 517.230957,263.139252 
	C520.145447,260.397888 521.603210,260.041016 524.849854,262.785278 
	C534.130615,270.630188 543.925415,277.874023 554.108154,284.522675 
	C560.695618,288.823822 563.543274,294.494843 562.396301,302.279266 
	C562.082520,304.408997 562.195190,306.601196 562.106445,308.764526 
	C561.760559,317.200409 551.679810,323.396667 543.910889,319.972290 
	C541.996887,319.128571 541.945374,317.413147 541.895081,315.767487 
	C541.777893,311.938538 541.793518,308.105713 541.722778,304.275085 
	C541.640137,299.799042 539.487793,296.796509 534.947632,296.515350 
	C527.144348,296.032074 519.394348,294.615417 511.535980,295.070709 
	C510.538910,295.128479 509.501617,295.096283 508.557190,295.365845 
	C498.933197,298.112488 495.297394,299.950684 494.515259,309.477722 
	C494.338348,311.632935 494.207611,313.797791 494.191132,315.959259 
	C494.125183,324.603546 493.882507,324.809509 485.008545,323.806213 
	C482.528931,323.525879 480.033752,323.358307 477.541046,323.228699 
	C476.217438,323.159882 474.580048,323.085907 474.638458,325.009918 
	C474.692352,326.784027 476.268463,326.866516 477.619690,326.898102 
	C480.949707,326.976013 484.281036,327.053314 487.611511,327.041016 
	C492.682495,327.022278 495.287811,329.265778 495.289734,334.565613 
	C495.290802,337.502472 495.927429,340.439117 496.917694,343.347778 
	C496.917694,339.374420 497.055023,335.394806 496.873230,331.429810 
	C496.733521,328.382446 497.613831,326.952087 500.952118,326.643585 
	C514.292725,325.410858 514.288452,325.307831 514.274109,338.668518 
	C514.271240,341.332794 514.335510,344.006226 514.138123,346.658295 
	C513.983521,348.736359 515.084351,349.387054 516.773315,349.412445 
	C518.629211,349.440369 519.366638,348.443420 519.250122,346.524780 
	C518.987793,342.205048 518.837463,337.876404 518.739746,333.549164 
	C518.566589,325.882507 518.597168,325.881805 526.428528,325.362366 
z"/>
<path fill="#3A7BD5" opacity="1.3A7BD5" stroke="none" 
	d="
M592.052979,623.779785 
	C618.103516,616.538818 644.558044,630.331421 654.207336,651.275574 
	C667.525696,680.183777 653.977905,719.107422 617.258850,726.999451 
	C588.877197,733.099548 560.205627,717.620178 554.886292,683.450928 
	C550.713562,656.646851 564.851074,631.659546 592.052979,623.779785 
M601.355286,706.321228 
	C605.832825,706.936707 610.203369,707.042053 614.664246,705.648132 
	C628.067932,701.460205 638.602905,685.681885 635.573303,669.519836 
	C633.090576,656.274963 624.879700,647.848145 612.099915,644.335999 
	C600.989136,641.282532 591.137817,644.455811 583.788269,653.296387 
	C568.425964,671.775269 577.443665,699.722778 601.355286,706.321228 
z"/>
<path fill="#3A7BD5" opacity="1.3A7BD5" stroke="none" 
	d="
M350.156494,281.279419 
	C357.264008,266.304382 369.151642,256.572784 382.723663,248.635422 
	C389.334656,244.769089 396.226410,241.346939 403.424652,238.688858 
	C408.319061,236.881531 408.744598,238.219833 410.654510,242.757828 
	C414.664612,252.285873 414.227478,262.643890 417.398102,272.304230 
	C424.805115,294.872131 413.270477,329.006439 393.899048,342.731384 
	C387.564240,347.219696 380.189789,349.067780 371.848450,351.349945 
	C373.692535,336.368439 375.946075,322.523590 379.138000,308.858521 
	C382.317719,295.245544 388.153687,282.525604 392.996094,269.413727 
	C385.048157,280.246338 377.793732,291.415405 374.340729,304.604919 
	C371.390137,315.875092 369.458679,327.356903 367.339325,338.799042 
	C367.066895,340.269836 366.823730,341.754242 366.419617,343.190918 
	C365.167664,347.642212 363.828949,348.186371 360.277069,345.024963 
	C347.576416,333.720612 341.846344,319.596130 344.024841,302.598999 
	C344.955261,295.339813 346.285706,288.120331 350.156494,281.279419 
z"/>
<path fill="#3A7BD5" opacity="1.3A7BD5" stroke="none" 
	d="
M231.539734,656.547363 
	C240.128479,675.926208 248.608154,694.939209 256.961090,714.007690 
	C259.100281,718.891113 261.326935,723.582581 266.721222,726.260498 
	C254.397232,727.917236 242.384201,724.042969 231.082642,728.171204 
	C230.083725,726.445251 230.224197,725.461975 230.921906,725.044983 
	C236.203461,721.888733 234.150192,717.883362 232.354797,713.858215 
	C228.272964,704.706970 228.281525,704.957031 218.252548,704.974670 
	C209.941452,704.989319 201.611343,704.524353 193.327164,703.826599 
	C190.484299,703.587158 188.840134,703.932495 188.100952,706.779236 
	C187.851700,707.739197 187.261444,708.613770 187.035583,709.576294 
	C185.718353,715.189575 178.883606,720.817383 187.809937,726.863220 
	C175.129593,726.398071 163.249542,725.690369 151.347519,727.382874 
	C151.347519,725.825378 151.245575,725.270752 151.362106,725.220276 
	C158.457291,722.145203 161.006378,715.597290 163.699097,709.153931 
	C174.357712,683.648499 185.000015,658.136292 195.704437,632.650085 
	C197.065094,629.410522 197.734299,626.022034 198.349289,622.046997 
	C204.247604,622.690796 209.999084,622.900208 215.747253,622.488220 
	C217.080292,622.392639 217.853226,623.040710 218.249847,624.388306 
	C221.506317,635.453125 227.283432,645.481750 231.539734,656.547363 
M206.506317,661.221619 
	C203.646591,668.781494 200.786865,676.341309 197.814865,684.197998 
	C204.948410,684.197998 211.637405,684.197998 218.988434,684.197998 
	C215.353058,674.963745 211.958969,666.342407 208.294632,657.034607 
	C207.551102,658.779602 207.164154,659.687683 206.506317,661.221619 
z"/>
<path fill="#34A853" opacity="1.34A853" stroke="none" 
	d="
M869.223328,673.875000 
	C875.752319,688.506348 882.321289,702.708313 888.380737,717.124512 
	C890.092834,721.197815 893.823242,723.001038 896.290771,726.628662 
	C884.188171,726.034607 872.278015,726.173462 860.079224,727.576355 
	C860.342834,726.300354 860.348633,725.799744 860.546570,725.392578 
	C861.647827,723.126404 865.708740,722.442566 864.505249,719.073303 
	C862.833923,714.394714 860.760559,709.847534 858.630066,705.352661 
	C857.986328,703.994568 856.294983,704.435608 854.966248,704.550964 
	C844.991577,705.417236 835.001648,705.486389 825.057068,704.386658 
	C821.044312,703.942810 818.718384,705.200745 817.564148,709.004639 
	C817.034119,710.751343 816.203735,712.404419 815.591980,714.129211 
	C813.128601,721.074707 813.140381,721.078918 818.383850,727.122986 
	C805.793579,726.130005 794.128113,725.804321 782.446411,727.426331 
	C782.446411,726.006531 782.339294,725.463989 782.461609,725.406067 
	C791.353699,721.196228 792.881653,712.107483 796.201111,704.338196 
	C806.008911,681.382690 815.581787,658.326599 825.212891,635.295776 
	C826.886719,631.293213 828.299377,627.203918 827.226196,622.000916 
	C833.995361,622.678467 840.385437,622.670532 846.758850,622.036133 
	C848.668884,621.846069 849.139099,623.370422 849.647278,624.868164 
	C855.266174,641.428162 862.404297,657.383484 869.223328,673.875000 
M829.795227,684.477417 
	C836.408875,684.477417 843.022522,684.477417 850.396301,684.477417 
	C846.548950,674.765137 842.901672,665.557739 838.841797,655.308960 
	C836.071716,662.870544 833.622131,669.225891 831.439392,675.671631 
	C830.511353,678.411987 828.363220,680.877014 829.795227,684.477417 
z"/>
<path fill="#34A853" opacity="1.34A853" stroke="none" 
	d="
M403.040436,357.310425 
	C397.655396,357.346069 392.560364,356.401825 388.101624,360.117310 
	C389.301392,362.223389 391.294922,361.822113 392.960510,362.046295 
	C401.414185,363.184387 409.930969,362.807831 418.415588,362.825104 
	C424.350861,362.837219 429.988434,363.895569 435.555817,365.734619 
	C441.584503,367.726044 446.043457,377.689972 443.489410,383.461060 
	C442.394135,385.935852 440.040375,386.542938 437.812531,387.070190 
	C415.566986,392.334839 394.035065,399.677185 372.936859,408.473053 
	C362.341614,412.890259 352.454102,418.726471 341.021942,423.667664 
	C342.196869,414.778381 344.852722,407.033783 347.303986,399.219818 
	C351.656769,385.344482 362.044403,375.201935 369.382751,363.177460 
	C370.354126,361.585785 371.995911,360.478241 373.812531,360.088837 
	C392.568481,356.068268 406.730347,345.525574 417.238037,329.725616 
	C417.400513,329.481293 417.789612,329.387634 418.427368,329.018494 
	C424.459991,332.926758 431.692810,331.683960 438.534943,332.546722 
	C442.304626,333.022064 443.495270,334.459259 443.073914,337.938354 
	C442.464447,342.970032 441.924164,348.010071 441.341431,353.161102 
	C440.405457,352.841370 439.881378,352.773346 439.864258,352.640106 
	C439.526123,350.010406 439.465057,346.329895 436.118530,346.699127 
	C432.454590,347.103394 428.392029,349.026947 427.638184,353.325806 
	C427.089844,356.452667 425.532043,357.232697 422.988190,357.260498 
	C416.501587,357.331360 410.013885,357.303345 403.040436,357.310425 
z"/>
<path fill="#34A853" opacity="1.34A853" stroke="none" 
	d="
M540.641235,224.436859 
	C544.467468,226.935410 549.350464,225.960480 552.864258,229.050735 
	C550.559448,231.950943 548.265564,230.881882 546.213074,230.030930 
	C540.369263,227.608093 534.595581,225.015961 528.794495,222.490036 
	C526.505432,221.493301 524.229065,220.466034 521.925476,219.504059 
	C516.075439,217.061111 511.040649,217.993042 506.459991,222.625687 
	C501.424042,227.718781 496.161804,232.602661 491.680542,238.197266 
	C488.165710,242.585358 484.300690,243.860779 478.365540,243.567657 
	C461.078247,242.713837 443.729401,243.103241 426.404663,243.012756 
	C418.967560,242.973923 418.967529,242.982483 417.755798,235.903687 
	C415.810730,224.540802 415.297119,224.265182 404.504700,227.965439 
	C397.530579,230.356552 390.903015,233.453568 384.845673,237.644150 
	C375.041199,244.427078 364.355713,243.194489 353.574982,241.342773 
	C351.141602,240.924820 350.531891,239.379166 351.698456,237.341339 
	C352.765076,235.478134 353.938721,233.610321 355.388580,232.043839 
	C361.501099,225.439484 368.008179,219.232758 374.743073,213.260757 
	C376.898346,211.349655 379.008148,210.239807 381.923523,211.720169 
	C383.882568,212.714951 386.123810,212.703369 388.301331,212.603210 
	C416.617462,211.300598 444.939911,212.596008 473.225098,213.268433 
	C487.225922,213.601257 501.131989,212.242157 515.080200,212.860687 
	C521.325439,213.137650 527.524963,212.970306 531.772766,219.341721 
	C533.444763,221.849625 536.993164,223.389130 540.641235,224.436859 
z"/>
<path fill="#34A853" opacity="1.34A853" stroke="none" 
	d="
M719.767822,407.543030 
	C719.911072,415.460541 715.902466,419.116669 709.011536,421.393463 
	C694.820557,426.082153 680.253418,428.446228 665.453979,429.214691 
	C656.529907,429.678070 647.552734,431.084198 638.571106,429.204468 
	C633.582275,428.160370 632.598328,426.967957 634.191650,422.089081 
	C636.050842,416.396027 637.801331,410.646790 640.054443,405.107208 
	C644.936401,393.104309 644.393738,391.213562 633.142517,385.173401 
	C632.136902,384.633484 631.049316,384.246124 629.440735,383.543823 
	C643.016296,383.710022 655.903259,384.564880 668.749329,386.634033 
	C684.170044,389.117859 699.642700,391.214172 714.875366,394.801270 
	C719.768127,395.953430 722.540283,397.674225 720.390503,403.180939 
	C719.922546,404.379730 720.035095,405.805145 719.767822,407.543030 
z"/>
<path fill="#34A853" opacity="1.34A853" stroke="none" 
	d="
M388.684448,637.132141 
	C389.608673,630.855347 387.812439,626.218811 382.427277,622.572998 
	C394.161316,621.578735 405.563232,624.234802 417.204651,621.958923 
	C409.647705,629.195068 411.439697,638.164307 411.377136,646.606506 
	C411.225372,667.088196 411.256714,687.571655 411.287262,708.054260 
	C411.297058,714.606934 409.725891,721.740723 417.602539,726.391907 
	C405.532135,726.948547 394.012482,726.476562 382.599915,727.475037 
	C382.444855,726.204285 382.276154,725.677429 382.387299,725.609680 
	C388.159760,722.090271 388.724884,716.626404 388.684387,710.510986 
	C388.523468,686.212158 388.657715,661.911377 388.684448,637.132141 
z"/>
<path fill="#34A853" opacity="1.34A853" stroke="none" 
	d="
M424.997559,205.379578 
	C412.124359,205.224197 399.712891,205.870758 387.716797,204.858856 
	C386.962433,201.743515 388.421295,200.843033 389.579620,200.071243 
	C410.556061,186.094864 431.750397,172.584518 457.077576,167.588791 
	C460.645782,166.884995 462.491882,167.565567 464.894989,170.662704 
	C468.105560,174.800461 472.190369,177.967331 472.946075,183.789780 
	C473.243225,186.079300 476.475494,187.085587 478.780823,188.087341 
	C482.140747,189.547302 485.572998,190.856140 488.861725,192.460419 
	C492.569275,194.268967 492.468719,196.793884 489.852844,199.630112 
	C487.919952,201.725800 485.427063,202.459305 482.747223,202.910828 
	C468.254059,205.352737 453.729156,206.904205 438.989441,205.481262 
	C434.530182,205.050797 429.996613,205.390823 424.997559,205.379578 
z"/>
<path fill="#34A853" opacity="1.34A853" stroke="none" 
	d="
M195.925705,248.083160 
	C199.772537,248.786774 203.207336,249.407318 206.639542,250.041855 
	C209.120880,250.500595 211.032333,251.755020 211.643097,254.299927 
	C212.202728,256.631897 210.481400,257.924622 208.967056,259.259033 
	C204.335861,263.339935 199.367554,266.286591 192.764038,265.367401 
	C189.547729,264.919708 187.344650,265.896942 187.819092,270.101898 
	C190.391388,292.899963 194.747696,315.361816 200.525681,337.537964 
	C203.184662,347.743225 207.935928,357.104370 213.618637,365.994781 
	C214.727844,367.730072 216.383347,369.339355 216.202179,372.032013 
	C213.387985,372.029480 212.141037,369.873535 210.723007,368.240295 
	C206.369263,363.225830 201.609741,359.562683 194.505386,358.693298 
	C184.699951,357.493317 181.665009,348.870972 183.210739,338.227478 
	C184.856186,326.897400 187.270905,315.678467 189.383163,304.417267 
	C189.886642,301.732971 189.863037,299.138000 188.624359,296.564117 
	C186.490021,296.171814 186.687271,299.145660 184.325943,299.112976 
	C179.370941,294.704193 174.097977,290.059021 170.053925,284.106201 
	C163.726181,274.791779 161.171814,273.912994 149.940811,276.265991 
	C149.352875,276.389130 148.693695,276.172394 147.923691,276.100433 
	C147.215347,273.116272 148.758698,271.103577 150.384262,269.295563 
	C157.205460,261.708710 164.969223,255.221466 173.524750,249.651871 
	C180.590881,245.051849 187.938629,245.278015 195.925705,248.083160 
z"/>
<path fill="#34A853" opacity="1.34A853" stroke="none" 
	d="
M619.906799,234.823761 
	C607.366028,239.716736 594.991028,242.617844 581.703979,242.610321 
	C572.209778,242.604950 564.832886,238.819016 556.617798,233.879898 
	C559.791260,232.659378 562.613647,231.914902 561.169556,227.911804 
	C560.485168,226.014572 563.065491,225.507416 564.485840,224.841217 
	C570.604004,221.971649 576.965576,223.219452 583.165771,224.260437 
	C588.138367,225.095337 592.684814,224.175842 597.394409,222.896271 
	C613.942139,218.400391 630.553467,214.206314 647.766602,213.002716 
	C653.172546,212.624695 657.537415,214.129044 661.101196,218.247955 
	C666.655884,224.667892 672.339905,230.975739 677.923096,237.371246 
	C679.996521,239.746246 678.898499,240.905624 676.214294,241.269867 
	C664.942688,242.799393 653.606628,242.280960 642.292480,242.219223 
	C639.374146,242.203293 637.137451,240.070786 634.707092,238.636459 
	C630.269714,236.017715 625.922668,232.965042 619.906799,234.823761 
z"/>
<path fill="#34A853" opacity="1.34A853" stroke="none" 
	d="
M719.845215,330.377625 
	C721.336243,338.124634 722.680298,345.458557 723.416382,352.906769 
	C723.792969,356.717102 722.239197,358.065277 718.761414,358.078613 
	C701.291687,358.145630 683.822021,358.229126 666.352295,358.292572 
	C664.592529,358.298950 662.846497,358.045197 662.830566,355.749542 
	C662.778931,348.320953 662.811279,340.891785 662.811279,332.659729 
	C668.190979,334.261536 672.720520,335.715424 677.310547,336.942719 
	C680.828369,337.883423 684.440063,338.909363 688.099792,338.262451 
	C695.065796,337.031097 697.105835,334.015961 698.201172,323.809479 
	C703.945618,323.809479 709.728882,323.774506 715.511475,323.821045 
	C719.790283,323.855499 719.048401,327.414673 719.845215,330.377625 
z"/>
<path fill="#34A853" opacity="1.34A853" stroke="none" 
	d="
M695.778931,279.258270 
	C679.335999,279.443390 663.362854,279.579681 646.828064,278.012604 
	C646.828064,269.060303 646.788025,260.154999 646.860046,251.250641 
	C646.875427,249.342773 648.417603,248.833496 650.031006,248.812759 
	C661.186157,248.669388 672.341675,248.551987 683.497192,248.445892 
	C684.713928,248.434311 685.885803,248.816711 686.551514,249.868469 
	C692.216064,258.818146 698.518127,267.426392 701.971008,277.356262 
	C700.322083,279.878387 698.130005,279.012695 695.778931,279.258270 
z"/>
<path fill="#34A853" opacity="1.34A853" stroke="none" 
	d="
M667.274292,299.734314 
	C662.059326,295.385956 656.692932,291.734222 652.400574,286.880341 
	C653.791748,284.643982 655.752136,284.840698 657.483582,284.831573 
	C672.307678,284.753296 687.132202,284.757629 701.956604,284.718781 
	C704.257874,284.712738 706.337036,285.105286 707.271301,287.546082 
	C710.779541,296.711884 714.458374,305.822968 716.643127,315.431488 
	C716.778259,316.025757 716.550903,316.702454 716.456299,317.731171 
	C708.594543,318.174164 700.841492,318.743866 693.079224,318.928162 
	C691.652283,318.962006 690.121094,317.532379 688.752441,316.608643 
	C681.286316,311.569489 674.301025,305.911102 667.274292,299.734314 
z"/>
<path fill="#34A853" opacity="1.34A853" stroke="none" 
	d="
M434.810822,278.776123 
	C427.234131,278.213959 427.455536,278.188477 426.632080,271.035614 
	C426.064728,266.107544 424.859650,261.244476 423.793884,256.384277 
	C422.316589,249.647415 422.622650,249.006180 429.777527,248.859680 
	C440.587708,248.638397 451.403778,248.689026 462.217438,248.663223 
	C466.542297,248.652908 470.868042,248.718216 475.192139,248.808548 
	C476.667664,248.839355 478.218262,248.839447 479.592560,250.740402 
	C475.196167,255.279236 470.739319,259.868134 466.296783,264.470825 
	C462.485565,268.419403 458.537781,272.250916 454.943573,276.388885 
	C452.629364,279.053223 450.248291,280.116547 446.672272,279.527893 
	C442.919586,278.910126 439.046967,279.020844 434.810822,278.776123 
z"/>
<path fill="#34A853" opacity="1.34A853" stroke="none" 
	d="
M392.970825,795.361145 
	C385.834106,795.359741 379.191956,795.359741 372.418335,795.359741 
	C371.201080,792.169861 371.782959,789.157349 371.753784,786.231995 
	C371.652344,776.068420 371.771149,765.901794 371.588196,755.740295 
	C371.524902,752.227234 372.371124,750.610291 376.317291,750.728699 
	C385.140259,750.993286 393.979797,750.948853 402.805939,750.743286 
	C406.392120,750.659729 407.507568,752.038452 407.352966,755.421753 
	C407.209045,758.570923 407.466644,761.515686 402.840332,761.328003 
	C397.683868,761.118774 392.511078,761.345886 387.346100,761.299805 
	C384.745575,761.276611 383.291748,762.119446 383.308044,765.034424 
	C383.324463,767.977173 384.869232,768.736694 387.422821,768.710022 
	C391.421234,768.668152 395.424347,768.841492 399.418610,768.711731 
	C403.021423,768.594788 403.363739,770.697754 403.364868,773.531616 
	C403.365997,776.415833 402.857727,778.424011 399.330688,778.324890 
	C395.502411,778.217224 391.666748,778.337891 387.834991,778.401184 
	C385.519653,778.439392 383.360565,778.801575 383.436035,781.861633 
	C383.509003,784.822083 385.736542,784.665283 387.749573,784.687744 
	C392.081604,784.736084 396.414276,784.725403 400.746490,784.758789 
	C407.354126,784.809692 407.463074,784.915039 407.312042,791.458130 
	C407.285797,792.594482 407.097931,793.727112 406.934692,795.362549 
	C402.348602,795.362549 397.907013,795.362549 392.970825,795.361145 
z"/>
<path fill="#34A853" opacity="1.34A853" stroke="none" 
	d="
M638.999878,768.338745 
	C644.494019,768.481567 649.605774,768.481567 654.551697,768.481567 
	C656.621460,777.645874 656.061462,778.359558 647.560364,778.356445 
	C645.066162,778.355530 642.568665,778.336182 640.078796,778.453552 
	C638.265015,778.539001 637.430359,779.713989 637.473694,781.461365 
	C637.516418,783.186096 638.713440,783.617615 640.182800,783.707458 
	C645.489197,784.032166 650.794434,784.630432 656.100525,784.636047 
	C661.388916,784.641602 660.042480,788.309570 660.317505,791.240601 
	C660.615479,794.416992 659.481628,795.586243 656.074463,795.478149 
	C647.431946,795.203918 638.775696,795.356018 630.124939,795.354309 
	C627.826355,795.353882 625.715576,795.246582 625.721497,792.082153 
	C625.746887,778.481689 625.732361,764.881165 625.732361,750.971252 
	C637.476440,750.971252 648.691162,750.971252 659.757446,750.971252 
	C660.086609,751.509155 660.397766,751.781494 660.401428,752.057922 
	C660.523682,761.287598 660.519287,761.288513 651.303528,761.308777 
	C648.309021,761.315308 645.313477,761.269226 642.320129,761.329773 
	C637.046570,761.436340 636.229126,762.982178 638.999878,768.338745 
z"/>
<path fill="#34A853" opacity="1.34A853" stroke="none" 
	d="
M539.066895,787.297363 
	C534.123047,787.252136 529.252502,786.384460 528.722656,793.189758 
	C528.589539,794.899719 526.818604,795.301880 525.204102,795.298584 
	C522.397888,795.292725 519.591614,795.296936 516.922180,795.296936 
	C515.799377,792.889038 517.113159,791.327881 517.792969,789.763489 
	C523.034729,777.700562 528.395630,765.689514 533.651794,753.632751 
	C534.589722,751.481384 536.035767,750.461609 538.317871,750.851990 
	C541.239441,751.351746 545.051941,749.488892 546.764709,753.396118 
	C552.512573,766.508484 558.117615,779.683594 563.747375,792.847473 
	C563.922607,793.257324 563.769592,793.807556 563.769592,794.535583 
	C560.430481,796.029419 556.918091,795.049622 553.531250,795.297241 
	C552.386963,795.380798 551.544006,794.647339 551.341858,793.612000 
	C549.979187,786.633545 545.015564,786.502380 539.066895,787.297363 
M541.416382,769.646729 
	C540.592407,768.371948 539.628174,767.314392 538.533020,769.291077 
	C537.437439,771.268433 535.852600,773.135925 536.279175,775.648743 
	C539.497559,776.747253 539.497559,776.747253 543.086426,775.900940 
	C543.041321,775.294617 543.095520,774.628174 542.925354,774.025024 
	C542.565369,772.749207 542.088135,771.506470 541.416382,769.646729 
z"/>
<path fill="#34A853" opacity="1.34A853" stroke="none" 
	d="
M427.263458,755.252808 
	C435.455475,749.349792 443.760101,748.723633 452.499237,752.964417 
	C455.699158,754.517212 457.156219,756.206665 453.799957,759.163696 
	C452.327850,760.460754 451.161072,762.104309 449.933838,763.501587 
	C447.799927,763.946228 446.820862,762.241333 445.420593,761.487793 
	C443.087311,760.232361 440.684784,759.843506 438.220825,760.839478 
	C436.783875,761.420349 435.670044,762.556152 435.526306,764.182007 
	C435.347076,766.209778 437.009064,766.549011 438.466431,766.915588 
	C441.365051,767.644653 444.289581,768.271729 447.183655,769.017456 
	C452.285095,770.331909 456.854095,772.778809 457.955658,778.254761 
	C459.141266,784.148682 456.346863,789.010925 451.708008,792.602478 
	C443.448822,798.996887 429.545166,797.024414 421.291107,788.382080 
	C421.647858,786.054504 424.015167,785.193298 425.104523,783.382935 
	C426.935699,780.339783 429.021179,779.642273 431.888397,782.330383 
	C433.901062,784.217346 436.500153,784.889282 439.302216,784.690491 
	C441.734772,784.517883 445.060699,785.184265 445.398529,781.911865 
	C445.766022,778.352417 442.231354,778.776855 439.928833,778.423828 
	C436.281433,777.864624 432.787994,777.082764 429.629059,774.990967 
	C421.356201,769.512817 420.440948,763.074158 427.263458,755.252808 
z"/>
<path fill="#34A853" opacity="1.34A853" stroke="none" 
	d="
M705.997681,363.712708 
	C710.818604,363.807983 715.139832,363.925018 719.461853,363.987000 
	C722.298523,364.027679 723.656860,365.123505 723.487854,368.239716 
	C723.236145,372.882721 723.330627,377.547760 723.375610,382.202454 
	C723.405212,385.264069 722.234436,386.327423 719.083130,385.703949 
	C705.740112,383.064056 692.372314,380.546875 678.998901,378.063873 
	C675.096619,377.339325 671.156372,376.492859 667.214661,376.383575 
	C661.293274,376.219421 663.094788,372.072754 662.844910,368.898773 
	C662.576355,365.487030 663.730042,363.644470 667.589355,363.683624 
	C680.224487,363.811829 692.861816,363.718994 705.997681,363.712708 
z"/>
<path fill="#34A853" opacity="1.34A853" stroke="none" 
	d="
M772.34A853,772.012451 
	C793.131165,772.283997 813.763367,772.497498 834.392273,772.886169 
	C837.277710,772.940491 842.221802,771.705566 842.172485,775.602844 
	C842.134216,778.628601 837.033936,778.132324 834.059875,778.172974 
	C806.776978,778.546021 779.500122,779.719055 752.207336,778.957031 
	C741.234558,778.650696 730.244019,779.806641 719.282776,778.517334 
	C716.999207,778.248718 714.181396,778.626160 714.319458,775.157776 
	C714.453979,771.778137 717.408997,771.988281 719.575989,771.979126 
	C736.883667,771.906006 754.191895,771.980652 772.34A853,772.012451 
z"/>
<path fill="#34A853" opacity="1.34A853" stroke="none" 
	d="
M582.414307,343.089966 
	C582.402771,351.232574 582.266724,358.890076 582.432861,366.540955 
	C582.515320,370.335052 580.917664,371.545746 577.332153,371.279785 
	C574.029114,371.034729 571.315491,371.243622 571.386780,366.281738 
	C571.687866,345.322998 571.504700,324.357605 571.651001,303.395752 
	C571.667847,300.993561 570.192871,297.028107 573.545288,296.548218 
	C577.123535,296.036011 580.505737,298.353729 582.482910,301.823029 
	C583.434509,303.492798 583.328613,305.364349 583.286255,307.188354 
	C583.012085,318.993317 582.708496,330.797577 582.414307,343.089966 
z"/>
<path fill="#34A853" opacity="1.34A853" stroke="none" 
	d="
M585.638733,772.044983 
	C585.662048,761.440613 585.661987,761.446655 575.297302,761.372559 
	C574.333069,761.365662 573.369873,761.218079 572.454346,761.139954 
	C571.217651,758.533630 571.805908,756.025269 571.770264,753.584473 
	C571.739197,751.455872 573.052673,750.731567 574.994324,750.717529 
	C585.793823,750.639709 596.593201,750.553406 607.392456,750.447998 
	C608.806580,750.434204 609.644714,751.052979 609.690918,752.449585 
	C609.762085,754.600159 609.758789,756.756104 609.697144,758.907227 
	C609.628906,761.284973 607.860046,761.221680 606.142273,761.342590 
	C597.178223,761.974182 597.110107,761.990295 596.992310,770.902954 
	C596.906616,777.381775 596.817505,783.873962 597.130920,790.340759 
	C597.425781,796.423828 593.224792,795.054382 589.760437,795.433899 
	C585.638550,795.885437 585.633118,793.365234 585.658203,790.484558 
	C585.710266,784.502441 585.652893,778.519409 585.638733,772.044983 
z"/>
<path fill="#34A853" opacity="1.34A853" stroke="none" 
	d="
M495.088745,791.481567 
	C494.835815,798.271057 490.010132,794.612976 487.296631,795.305176 
	C484.356659,796.055237 484.301941,793.718079 484.339050,791.553162 
	C484.484070,783.088074 484.469910,774.619324 484.706726,766.157288 
	C484.808716,762.513184 483.440765,760.860535 479.747711,761.268250 
	C478.761261,761.377197 477.753937,761.280334 476.758667,761.328857 
	C473.404449,761.492493 470.499146,761.595337 470.656158,756.641541 
	C470.793976,752.293091 471.954407,750.416199 476.718903,750.620422 
	C485.177216,750.982788 493.663666,750.695496 502.138275,750.669983 
	C508.722107,750.650146 508.723175,750.643433 508.436768,757.015076 
	C508.385162,758.163208 508.320465,759.310852 508.266602,760.365234 
	C506.551392,761.841125 504.641510,761.279663 502.879333,761.306335 
	C495.368713,761.420410 495.357239,761.385925 495.272369,769.109924 
	C495.192047,776.421082 495.138000,783.732544 495.088745,791.481567 
z"/>
<path fill="#34A853" opacity="1.34A853" stroke="none" 
	d="
M304.460541,778.537720 
	C290.703186,778.517822 277.408722,778.430664 264.114166,778.393494 
	C245.977081,778.342773 227.839890,778.335083 209.702789,778.292847 
	C208.041809,778.289001 206.376755,778.221985 204.721603,778.086365 
	C203.386826,777.976990 202.645767,777.154846 202.509933,775.814758 
	C202.369553,774.429993 203.107101,773.590210 204.323715,773.201904 
	C205.103622,772.952881 205.955353,772.830811 206.776459,772.823425 
	C221.407654,772.691101 236.038895,772.535034 250.670486,772.486450 
	C267.632690,772.430115 284.597382,773.160400 301.557251,772.138550 
	C305.698181,771.889099 309.879974,771.961853 314.020447,772.232178 
	C315.743286,772.344666 318.391418,771.907288 318.381683,775.040039 
	C318.372070,778.124817 316.228760,778.318115 313.906403,778.330261 
	C310.911865,778.345825 307.917725,778.435242 304.460541,778.537720 
z"/>
<path fill="#34A853" opacity="1.34A853" stroke="none" 
	d="
M367.894562,248.195877 
	C357.696777,256.336243 348.621124,264.991150 343.651581,277.124634 
	C342.525146,279.874908 340.301025,280.608948 337.529541,280.099457 
	C336.548737,279.919098 335.570648,279.718872 334.584656,279.572418 
	C325.158508,278.171967 324.991577,277.912567 330.117249,269.463837 
	C334.426331,262.361053 338.983063,255.408554 343.299469,248.310043 
	C344.908844,245.663300 346.588654,244.614212 349.782837,245.873962 
	C354.058075,247.560059 358.680511,246.322037 363.124634,246.739777 
	C364.770599,246.894501 366.814728,245.715179 367.894562,248.195877 
z"/>
<path fill="#34A853" opacity="1.34A853" stroke="none" 
	d="
M888.879639,607.982422 
	C888.022766,612.018982 888.087830,615.622437 889.623657,619.829285 
	C885.572571,619.531311 884.278625,617.321167 883.859131,614.154236 
	C883.454285,611.097412 884.292664,607.889587 882.157471,605.037170 
	C881.115479,603.645203 882.535645,602.268433 883.466736,601.091919 
	C891.930298,590.397278 906.847229,590.381409 915.321899,601.061829 
	C920.479126,607.561523 918.537292,617.779297 911.730469,620.115173 
	C907.449341,621.584290 904.181885,620.968323 902.782227,616.089172 
	C902.516968,615.164307 902.425415,614.071472 901.044983,613.880798 
	C899.100708,614.821960 899.608765,617.015259 898.810547,618.555664 
	C898.321350,619.499573 897.631897,620.169800 896.503662,620.166687 
	C895.585022,620.164124 894.686951,619.738220 894.734497,618.808594 
	C895.042969,612.769775 893.809509,606.676025 894.911804,600.365723 
	C898.158386,600.559204 900.988770,600.496338 903.737549,600.939392 
	C909.659058,601.893677 910.700928,603.659607 909.147034,609.593628 
	C908.454834,612.237244 906.933716,614.942383 910.125732,617.088745 
	C913.263550,613.964172 913.814758,608.193115 911.584717,603.277893 
	C909.426331,598.520569 905.465881,596.557617 899.177307,597.127930 
	C893.390320,597.652771 890.843445,600.267212 888.879639,607.982422 
z"/>
<path fill="#34A853" opacity="1.34A853" stroke="none" 
	d="
M655.050903,371.622681 
	C654.974060,374.569702 654.084412,376.697723 651.216309,375.809906 
	C648.029053,374.823242 643.167786,375.591583 643.066406,370.273956 
	C642.974670,365.461670 643.462280,360.641235 643.565491,355.821655 
	C643.750732,347.169220 643.797852,338.513794 644.002441,329.861938 
	C644.044678,328.074036 643.197876,325.153259 646.405396,325.517670 
	C649.392822,325.857086 653.537964,324.901337 654.217285,329.760071 
	C654.331726,330.578186 654.262146,331.421967 654.278625,332.253876 
	C654.535339,345.226837 654.792114,358.199799 655.050903,371.622681 
z"/>
<path fill="#FFFFFF" opacity="1.FFFFFF" stroke="none" 
	d="
M697.341797,762.990112 
	C704.313416,765.691772 706.668457,769.228821 706.318420,775.984985 
	C706.049805,781.169800 702.205933,785.920959 697.292664,787.310120 
	C692.381531,788.698853 688.405579,787.156799 685.258911,783.417114 
	C681.956970,779.492859 680.295532,774.960266 682.585266,770.025146 
	C684.755188,765.348206 688.385864,762.365479 693.955078,762.671021 
	C694.950134,762.725525 695.943909,762.803711 697.341797,762.990112 
z"/>
<path fill="#FFFFFF" opacity="1.FFFFFF" stroke="none" 
	d="
M689.176392,567.339600 
	C688.648376,560.321533 691.924377,554.675659 697.153015,552.997864 
	C701.757446,551.520386 708.201599,553.723999 710.937805,557.711731 
	C714.149048,562.391602 713.807617,568.427063 710.073975,572.984009 
	C704.510620,579.774048 693.079590,576.882385 689.176392,567.339600 
z"/>
<path fill="#FFFFFF" opacity="1.FFFFFF" stroke="none" 
	d="
M347.901184,767.185547 
	C351.341064,771.957642 351.754822,776.721130 349.115936,781.511597 
	C346.969513,785.408020 343.631989,787.468384 338.946930,787.417664 
	C333.838013,787.362366 330.419617,785.214966 328.650024,780.420044 
	C326.653259,775.009827 327.657898,769.391724 331.236511,766.111572 
	C335.206604,762.472412 339.651245,761.900940 344.495117,764.529114 
	C345.640015,765.150330 346.608826,766.096069 347.901184,767.185547 
z"/>
<path fill="#FFFFFF" opacity="1.FFFFFF" stroke="none" 
	d="
M430.963379,843.273438 
	C423.962006,839.344238 421.173889,834.959229 422.144257,829.895203 
	C423.141449,824.691162 427.570984,820.474548 432.930695,819.444397 
	C436.049042,818.845032 438.851288,819.790466 441.621368,820.928284 
	C442.862885,821.438232 444.071930,822.267822 443.717255,823.885742 
	C443.402374,825.322205 442.297211,826.161011 440.842255,826.226807 
	C439.534607,826.285889 438.117310,826.368347 436.920380,825.949280 
	C433.883362,824.885986 431.630585,826.000488 429.987610,828.336731 
	C428.649689,830.239258 428.818207,832.527649 430.048035,834.461731 
	C431.605133,836.910461 433.968201,837.249329 436.505249,836.423889 
	C437.122833,835.649231 436.802704,835.094482 436.298187,834.629700 
	C434.915253,833.355896 433.428070,831.997070 434.634491,829.971252 
	C435.759949,828.081421 437.548370,829.149048 439.137329,829.398438 
	C445.990356,830.474304 446.638000,831.280090 445.951813,837.589111 
	C445.734039,839.591614 445.044708,840.898865 443.001373,841.677185 
	C439.206757,843.122437 435.396912,843.995605 430.963379,843.273438 
z"/>
<path fill="#FFFFFF" opacity="1.FFFFFF" stroke="none" 
	d="
M516.298462,835.021729 
	C515.909546,837.942322 517.268372,841.229919 513.841370,842.359985 
	C511.032043,843.286316 509.147308,841.464905 507.790527,839.127563 
	C507.039398,837.833618 506.266022,836.552673 505.506683,835.263550 
	C505.008667,834.418030 504.517853,833.568298 503.398621,831.647522 
	C502.945618,834.475525 502.520386,836.294556 502.392609,838.134277 
	C502.223053,840.575439 502.131866,843.118225 498.873505,843.074890 
	C495.300415,843.027405 495.943451,840.016357 495.868103,837.864014 
	C495.699402,833.044495 495.748352,828.216309 495.770752,823.391907 
	C495.777496,821.938843 495.483124,820.241821 497.159912,819.421021 
	C498.887207,818.575378 500.412445,819.462280 501.795746,820.394653 
	C503.632599,821.632568 504.794312,823.477417 505.872620,825.367126 
	C506.846802,827.074341 507.527771,828.982910 509.387085,830.448059 
	C510.604736,828.100525 510.636536,825.677185 510.697693,823.266541 
	C510.746674,821.336365 511.508972,820.045410 513.614014,819.999817 
	C515.707336,819.954468 516.745972,821.282715 516.744019,823.122253 
	C516.739868,826.938293 516.467102,830.754028 516.298462,835.021729 
z"/>
<path fill="#FFFFFF" opacity="1.FFFFFF" stroke="none" 
	d="
M669.080933,839.104980 
	C669.006958,840.334656 669.099304,841.351501 668.635559,841.886108 
	C667.369751,843.345520 653.146484,843.933594 651.699951,842.653198 
	C651.251892,842.256714 650.824036,841.532654 650.835632,840.967712 
	C650.977112,834.055176 649.492859,827.118713 650.826355,819.802307 
	C656.196899,819.802307 661.302124,819.770264 666.406616,819.817993 
	C668.464294,819.837280 669.310242,821.043518 669.278625,823.055664 
	C669.248535,824.971985 668.149231,825.647705 666.455627,825.814880 
	C663.598206,826.096802 660.597717,825.478455 657.360657,826.853271 
	C659.599854,829.801819 662.260986,828.338379 664.456055,828.715881 
	C665.910583,828.965942 667.700500,828.690674 667.772339,830.813904 
	C667.837769,832.748047 666.383118,833.218506 664.747375,833.345276 
	C662.486389,833.520447 660.099976,833.281006 658.022888,835.287720 
	C659.486694,837.354431 661.620667,836.421204 663.384827,836.664429 
	C665.402832,836.942688 667.859375,835.939087 669.080933,839.104980 
z"/>
<path fill="#FFFFFF" opacity="1.FFFFFF" stroke="none" 
	d="
M623.625610,826.386841 
	C622.541626,820.675293 624.905579,819.070984 629.869690,819.744995 
	C632.323303,820.078125 634.871460,819.753418 637.270874,820.598999 
	C641.411743,822.058167 644.205994,828.061829 641.626343,831.055847 
	C639.060913,834.033142 639.078491,836.513977 640.830811,839.593506 
	C641.287415,840.396057 641.289001,841.457520 641.525696,842.516846 
	C635.156677,845.979126 634.479187,838.780334 631.119690,837.088623 
	C630.673157,837.376892 630.283264,837.486084 630.161560,837.729431 
	C629.098694,839.855530 629.727905,843.721008 625.556702,842.717041 
	C622.136230,841.893860 623.826111,838.864868 623.667908,836.817139 
	C623.412415,833.509521 623.616638,830.166382 623.625610,826.386841 
M634.326843,829.622131 
	C636.034668,826.963989 633.786987,826.727600 632.183350,826.325684 
	C631.026489,826.035706 629.599976,826.380920 629.659790,827.812012 
	C629.775940,830.588074 632.023621,829.767395 634.326843,829.622131 
z"/>
<path fill="#FFFFFF" opacity="1.FFFFFF" stroke="none" 
	d="
M566.716553,838.721069 
	C566.740479,833.591797 566.736755,828.928589 566.815979,824.266724 
	C566.850708,822.226929 566.946472,820.035278 569.789917,819.985352 
	C572.464111,819.938477 573.000305,821.826538 573.149353,824.013062 
	C573.237610,825.308411 572.920654,826.704773 574.057129,828.018250 
	C578.052551,828.634766 580.744446,827.549805 580.706787,822.735840 
	C580.687744,820.302246 582.212646,819.691345 584.352600,819.769775 
	C586.473938,819.847412 587.290222,820.982117 587.282776,822.962646 
	C587.262634,828.291382 587.240967,833.620056 587.249084,838.948792 
	C587.253052,841.569275 586.046753,843.092468 583.377136,843.073547 
	C580.710205,843.054688 580.812927,840.987061 580.747314,839.133972 
	C580.664795,836.804443 581.025024,834.358032 577.392090,834.283875 
	C573.932129,834.213318 573.136475,836.102905 573.123169,838.982910 
	C573.112366,841.334045 571.980713,842.724365 569.524658,842.870056 
	C566.743408,843.034973 566.815552,841.054443 566.716553,838.721069 
z"/>
<path fill="#FFFFFF" opacity="1.FFFFFF" stroke="none" 
	d="
M596.835083,835.883057 
	C596.831665,832.075745 596.826233,828.752625 596.830078,825.429565 
	C596.830872,824.765320 596.883484,824.101135 596.884766,823.436829 
	C596.889465,821.049133 597.918213,819.386047 600.454895,819.830139 
	C604.991455,820.624146 610.310913,817.558594 613.961670,821.804077 
	C615.251099,823.303467 614.297180,826.080383 611.136536,826.195374 
	C609.185852,826.266357 607.168701,825.777649 604.945312,826.927063 
	C606.003967,829.035767 607.935547,828.603394 609.559082,828.703613 
	C611.241211,828.807373 612.577820,829.266907 612.539917,831.228210 
	C612.505737,832.993164 611.145691,833.202332 609.748230,833.383423 
	C607.910767,833.621460 605.648499,833.000061 604.742065,835.556213 
	C606.165894,837.426636 608.158875,836.636169 609.852478,836.667786 
	C612.327271,836.713989 613.588257,837.735535 613.638489,840.196594 
	C613.691406,842.788879 611.960205,843.075745 609.950806,843.033325 
	C607.791382,842.987793 605.631042,842.975586 603.471069,842.975830 
	C597.024963,842.976624 597.024963,842.981812 596.835083,835.883057 
z"/>
<path fill="#FFFFFF" opacity="1.FFFFFF" stroke="none" 
	d="
M412.954529,843.192139 
	C410.722137,843.306152 409.617493,842.432861 408.446289,841.000854 
	C406.225677,838.285889 401.303680,838.339172 398.798981,840.767578 
	C396.045746,843.437195 396.045746,843.437195 391.664124,842.423828 
	C393.760223,834.512756 397.446838,827.342041 401.537964,820.373352 
	C402.748596,818.311279 404.876343,818.449890 406.044250,820.272583 
	C410.166534,826.706055 413.473785,833.549927 415.040253,841.103271 
	C415.278534,842.252319 414.473114,842.913574 412.954529,843.192139 
z"/>
<path fill="#FFFFFF" opacity="1.FFFFFF" stroke="none" 
	d="
M634.601318,321.182556 
	C637.115479,322.480804 639.715881,322.791168 641.525269,324.737396 
	C641.083862,327.635406 638.864563,327.861145 636.701416,327.914429 
	C633.356934,327.996796 631.754822,329.550781 632.198059,332.902313 
	C632.776062,337.273041 630.655823,338.349030 626.682312,338.059784 
	C618.481812,337.462830 617.592102,336.297607 618.151367,325.591248 
	C618.543030,318.093384 620.637329,316.607941 627.636780,318.870728 
	C629.842407,319.583740 632.043701,320.309814 634.601318,321.182556 
z"/>
<path fill="#FFFFFF" opacity="1.FFFFFF" stroke="none" 
	d="
M536.604675,826.195801 
	C535.042542,826.296265 533.843201,826.342529 533.554504,828.112183 
	C535.347534,830.036804 537.586670,828.471863 539.559753,828.688904 
	C541.441711,828.895996 542.927185,829.357422 542.897949,831.504150 
	C542.869263,833.608154 541.456360,834.236023 539.521790,834.270996 
	C537.644531,834.304871 535.598755,833.644531 533.664124,835.250366 
	C535.423767,837.646973 537.743774,836.539551 539.682739,836.682129 
	C541.758301,836.834778 543.273438,837.262878 543.229553,839.775391 
	C543.187805,842.160034 541.561401,842.374207 539.814453,842.366028 
	C526.247620,842.302307 526.692017,844.413086 526.709351,830.280579 
	C526.723694,818.562866 525.377747,819.772217 537.544128,819.788269 
	C538.708862,819.789795 539.875366,819.821472 541.037659,819.893921 
	C542.789612,820.003052 543.876038,820.893616 543.817932,822.718811 
	C543.760681,824.520874 543.160828,826.026245 540.988831,826.113831 
	C539.658630,826.167480 538.325928,826.161621 536.604675,826.195801 
z"/>
<path fill="#FFFFFF" opacity="1.FFFFFF" stroke="none" 
	d="
M519.275208,304.797424 
	C519.438477,302.250458 520.705627,301.563477 522.673035,301.703461 
	C524.332275,301.821472 525.998047,301.980316 527.657043,301.943939 
	C532.549255,301.836609 535.269348,303.662933 534.405579,309.040985 
	C534.223633,310.173859 534.539856,311.381256 534.404907,312.528229 
	C534.074158,315.338562 536.791992,319.243561 533.400330,320.756500 
	C529.535400,322.480560 524.901978,322.202423 520.628601,321.331604 
	C518.546448,320.907227 518.790222,318.795074 518.828064,317.157715 
	C518.920288,313.174255 519.105103,309.192932 519.275208,304.797424 
z"/>
<path fill="#FFFFFF" opacity="1.FFFFFF" stroke="none" 
	d="
M512.967773,302.310547 
	C515.292358,307.950226 514.088379,313.600555 514.112366,319.173645 
	C514.122070,321.420105 511.841034,321.583710 510.286774,321.269226 
	C506.529022,320.509033 501.346588,324.527771 499.295197,320.280548 
	C497.330383,316.212646 498.256927,310.828186 499.070740,306.065247 
	C499.313873,304.642029 501.038361,304.319458 502.293549,304.051270 
	C505.694427,303.324707 509.134125,302.779541 512.967773,302.310547 
z"/>
<path fill="#FFFFFF" opacity="1.FFFFFF" stroke="none" 
	d="
M601.236938,353.889771 
	C601.390503,350.340393 601.790100,347.191681 601.606873,344.077240 
	C601.384460,340.295380 603.001221,339.361053 606.360718,340.116425 
	C607.807495,340.441742 609.290588,340.655273 610.768921,340.780334 
	C613.933044,341.048004 615.580322,342.512115 615.361450,345.879944 
	C615.211792,348.184143 615.580505,350.538208 615.279175,352.811859 
	C614.977844,355.085815 616.914551,358.438843 612.685852,359.173584 
	C607.784119,360.025208 602.505554,357.798248 601.236938,353.889771 
z"/>
<path fill="#FFFFFF" opacity="1.FFFFFF" stroke="none" 
	d="
M601.057068,329.782898 
	C601.114380,328.530670 601.140076,327.698608 601.245422,326.876709 
	C602.413330,317.762726 602.389099,317.897461 611.275452,319.717438 
	C614.156006,320.307434 615.264465,321.602722 615.168762,324.379456 
	C615.094421,326.534973 615.192444,328.696198 615.202209,330.854919 
	C615.231323,337.316620 614.608398,337.889801 608.334717,335.612335 
	C605.507141,334.585846 601.250000,334.975067 601.057068,329.782898 
z"/>
<path fill="#FFFFFF" opacity="1.FFFFFF" stroke="none" 
	d="
M589.424805,336.184265 
	C586.898071,330.655029 588.207520,325.425690 589.298523,320.240417 
	C589.646179,318.588074 590.824768,317.125641 592.585693,316.806885 
	C594.454834,316.468567 594.925171,318.283173 595.759216,319.473938 
	C599.000977,324.102417 600.155823,329.235413 598.585510,334.624237 
	C597.791931,337.347321 599.623474,340.227081 597.528381,343.219208 
	C594.807739,340.888031 592.238831,338.686829 589.424805,336.184265 
z"/>
<path fill="#FFFFFF" opacity="1.FFFFFF" stroke="none" 
	d="
M374.574585,830.152039 
	C374.565216,827.734558 374.186920,826.061462 371.562195,826.272644 
	C368.830444,826.492371 367.525818,825.289246 367.754669,822.470886 
	C367.992981,819.536438 370.163116,819.745544 372.144012,819.719482 
	C375.799988,819.671265 379.457031,819.706482 383.113556,819.692078 
	C385.111938,819.684143 386.825653,820.119812 387.074707,822.492737 
	C387.283539,824.481934 386.215515,825.766785 384.327423,825.987427 
	C381.260071,826.345764 381.268860,828.439636 381.258636,830.701172 
	C381.245117,833.691406 381.216217,836.685547 381.046875,839.669678 
	C380.931427,841.704834 380.007629,843.118469 377.654114,843.133057 
	C375.109283,843.148865 374.682465,841.562805 374.680389,839.517944 
	C374.677368,836.526428 374.624054,833.534912 374.574585,830.152039 
z"/>
<path fill="#FFFFFF" opacity="1.FFFFFF" stroke="none" 
	d="
M618.652466,350.029144 
	C618.861328,347.308472 618.116455,344.939911 619.367004,342.822052 
	C630.459351,342.321594 635.073853,347.960419 632.147522,358.272034 
	C631.846252,359.333710 631.353149,359.963623 630.299438,360.322266 
	C623.513367,362.632019 619.156555,359.704834 618.698242,352.478851 
	C618.656372,351.819183 618.667725,351.156158 618.652466,350.029144 
z"/>
<path fill="#FFFFFF" opacity="1.FFFFFF" stroke="none" 
	d="
M431.220795,302.434082 
	C428.632782,304.254028 426.681366,304.496277 426.788574,300.926331 
	C426.927826,296.289703 427.428284,291.663605 427.787170,287.034058 
	C427.916382,285.367310 429.027344,284.795288 430.508942,284.761261 
	C435.438416,284.648010 440.384064,284.436523 445.608612,286.501007 
	C440.728973,291.931335 436.118530,297.062073 431.220795,302.434082 
z"/>
<path fill="#FFFFFF" opacity="1.FFFFFF" stroke="none" 
	d="
M466.675232,843.191284 
	C454.678711,843.163635 454.676819,843.163635 454.667175,831.683289 
	C454.664795,828.866760 454.673737,826.050293 454.687531,823.233765 
	C454.696167,821.473511 454.902527,819.923279 457.231384,819.778198 
	C459.579102,819.631775 460.630768,820.883667 460.786041,822.959778 
	C461.128174,827.534424 461.337982,832.119019 461.616699,836.958374 
	C464.507843,836.827332 466.938934,836.717102 469.572083,836.597717 
	C470.364075,839.526489 471.385986,842.275696 466.675232,843.191284 
z"/>
<path fill="#FFFFFF" opacity="1.FFFFFF" stroke="none" 
	d="
M104.986084,428.849548 
	C103.148010,423.743317 100.626907,419.206116 100.428635,413.780670 
	C105.921097,412.444824 109.941994,416.122559 115.087624,416.112518 
	C114.291039,421.085388 112.702110,425.223694 110.251846,428.962189 
	C108.905876,431.015778 106.971756,431.962463 104.986084,428.849548 
z"/>
<path fill="#FFFFFF" opacity="1.FFFFFF" stroke="none" 
	d="
M481.967773,819.772949 
	C484.521423,819.833557 485.094604,821.113464 485.346039,823.004761 
	C486.092712,828.621521 486.131592,834.204956 485.337860,839.822998 
	C485.041473,841.921204 484.383942,843.247131 482.018402,843.230957 
	C479.882080,843.216370 478.964600,841.945068 478.943542,840.115662 
	C478.874878,834.161133 478.927582,828.204407 479.002594,822.249390 
	C479.021912,820.716797 479.925354,819.833130 481.967773,819.772949 
z"/>
<path fill="#FFFFFF" opacity="1.FFFFFF" stroke="none" 
	d="
M186.674377,395.480957 
	C182.999161,390.143250 183.491852,387.124176 188.077850,385.213074 
	C190.815399,384.072296 193.783615,383.422119 195.864624,386.077545 
	C197.794510,388.540131 198.126007,391.977051 196.859024,394.583496 
	C195.641449,397.088196 192.410385,397.147858 189.701691,396.851257 
	C188.760727,396.748199 187.876770,396.124664 186.674377,395.480957 
z"/>
<path fill="#FFFFFF" opacity="1.FFFFFF" stroke="none" 
	d="
M457.186157,364.075439 
	C457.508881,369.712585 457.293243,375.031921 458.635406,380.221283 
	C459.234375,382.537231 457.755463,383.080322 455.954071,383.422943 
	C454.263733,383.744446 452.590912,384.138885 451.912537,381.884979 
	C450.256042,376.381561 450.170227,370.667633 450.957001,365.137787 
	C451.459198,361.608002 454.484070,362.003296 457.186157,364.075439 
z"/>
<path fill="#FFFFFF" opacity="1.FFFFFF" stroke="none" 
	d="
M523.182495,369.957458 
	C519.375854,368.893799 515.855408,368.126678 512.242859,365.383331 
	C520.549500,361.286530 527.537964,363.415527 535.739014,367.519775 
	C530.898743,368.495636 527.247192,369.231812 523.182495,369.957458 
z"/>
<path fill="#FFFFFF" opacity="1.FFFFFF" stroke="none" 
	d="
M163.342178,405.977966 
	C160.987366,413.514954 157.144089,415.401459 148.147491,413.847870 
	C149.615479,407.454193 156.621521,403.631866 163.342178,405.977966 
z"/>
<path fill="#FFFFFF" opacity="1.FFFFFF" stroke="none" 
	d="
M156.873062,380.884644 
	C161.190887,384.539062 163.009476,380.145752 165.937302,378.009521 
	C167.691605,382.385254 165.873474,385.627441 164.161926,388.871124 
	C164.025620,389.129486 163.669662,389.385437 163.381638,389.432190 
	C161.232285,389.781189 159.848755,388.311127 158.961502,386.861359 
	C157.850189,385.045410 154.077316,384.083130 156.873062,380.884644 
z"/>
<path fill="#FFFFFF" opacity="1.3A7BD5" stroke="none" 
	d="
M591.259399,311.398743 
	C588.350769,311.652405 587.939880,309.923218 588.180664,307.947876 
	C588.329956,306.723877 589.437500,306.377777 590.442383,306.929626 
	C592.254944,307.924988 593.258728,309.287231 591.259399,311.398743 
z"/>
</svg>